<svg xmlns="http://www.w3.org/2000/svg" xmlns:svg="http://www.w3.org/2000/svg" id="svg2" width="307.174" height="166.732" version="1.1" viewBox="0 0 287.976 156.311"><metadata id="metadata7"/><g id="layer1" transform="translate(-238.09557,-490.33706)"><path id="path4180" fill="#fff" fill-opacity="1" d="m 326.3032,608.80929 -16.15223,0.0282 -13.92965,-0.009 -21.3306,0.12546 -41.52919,-0.0957 -0.2224,-55.72725 0.22817,-23.1091 -0.3225,-4.89476 0.034,-38.57908 52.16986,-0.25118 0.0639,43.79551 0.10549,28.94213 0.0794,11.39848 19.84284,-0.0731 z"/><path id="path4185" fill="#fff" fill-opacity="1" d="m 341.02067,608.67876 -43.33551,-76.11075 61.56353,0.1144 10.35612,0.031 6.04497,0.17599 9.05082,0.008 z"/><path id="path4190" fill="#fff" fill-opacity="1" d="m 354.94925,608.32157 5.85662,-9.58803 4.51678,-6.56284 6.15012,7.80946 5.96022,8.42085 -9.86389,-0.007 z"/><path id="path4193" fill="#fff" fill-opacity="1" d="m 516.73499,576.00022 a 66.428574,66.60714 0 0 1 -66.42857,66.60714 66.428574,66.60714 0 0 1 -66.42858,-66.60714 66.428574,66.60714 0 0 1 66.42858,-66.60714 66.428574,66.60714 0 0 1 66.42857,66.60714 z"/><path id="rect4196" fill="#fff" fill-opacity="0" d="M 387.0921,623.32157 500.3064,511.17871 521.02068,524.39302 404.5921,641.53588 c -6.07143,-6.07144 -18.36305,-16.30356 -17.5,-18.21431 z"/><path id="rect4199" fill="#00f" fill-opacity="0" d="m 387.09307,615.33324 115.15739,-102.53048 19.1929,18.18275 -118.18785,103.54064 z"/></g></svg>